<?xml version="1.0" standalone="no"?>
<!DOCTYPE svg PUBLIC "-//W3C//DTD SVG 20010904//EN"
 "http://www.w3.org/TR/2001/REC-SVG-20010904/DTD/svg10.dtd">
<svg version="1.0" xmlns="http://www.w3.org/2000/svg"
 width="700.000000pt" height="700.000000pt" viewBox="0 0 700.000000 700.000000"
 preserveAspectRatio="xMidYMid meet">
<metadata>
Created by potrace 1.14, written by Peter Selinger 2001-2017
</metadata>
<g transform="translate(0.000000,700.000000) scale(0.100000,-0.100000)"
fill="#000000" stroke="none">
<path d="M3285 6994 c-510 -41 -904 -146 -1330 -354 -354 -173 -651 -385 -930
-665 -563 -562 -903 -1267 -1001 -2075 -25 -200 -25 -600 0 -800 51 -425 153
-772 336 -1145 485 -990 1399 -1686 2490 -1894 216 -41 383 -55 650 -55 412 0
745 52 1115 176 1282 427 2204 1565 2360 2913 71 618 -21 1237 -272 1820 l-39
90 -66 22 c-200 67 -577 91 -924 58 -520 -50 -1104 -174 -1468 -312 -211 -80
-233 -94 -424 -280 l-172 -168 9 -38 c13 -53 54 -110 112 -154 27 -20 49 -41
49 -45 0 -13 -39 -9 -68 6 -28 15 -116 104 -143 145 l-15 24 -66 -89 c-138
-186 -207 -328 -216 -446 -2 -38 -8 -68 -12 -68 -5 0 -29 23 -54 50 -81 92
-112 224 -82 355 73 312 339 662 724 952 61 46 112 88 112 93 0 5 -16 18 -35
30 -28 17 -50 21 -114 21 -43 0 -100 -5 -125 -11 -294 -66 -809 -341 -1217
-651 -344 -262 -543 -474 -556 -593 -15 -131 81 -205 493 -379 247 -104 356
-176 446 -294 73 -97 92 -157 93 -288 0 -130 -19 -192 -91 -297 -90 -133 -232
-247 -419 -338 -249 -121 -532 -189 -916 -221 -280 -23 -570 25 -853 141 -186
75 -320 178 -404 309 -41 63 -86 165 -80 183 2 5 24 -6 48 -24 181 -136 479
-220 890 -249 186 -13 476 0 652 31 274 46 596 201 790 380 185 169 171 374
-34 494 -24 14 -122 57 -217 96 -304 125 -447 206 -554 319 -126 132 -155 279
-91 470 47 140 126 253 285 406 423 406 1105 737 1663 806 119 14 306 7 391
-16 147 -41 235 -116 266 -230 8 -28 14 -35 27 -30 55 21 270 82 407 115 489
119 1012 168 1339 125 121 -16 306 -60 396 -94 30 -11 56 -19 58 -17 5 6 -100
167 -181 276 -107 144 -209 262 -342 395 -560 560 -1275 906 -2065 1000 -130
15 -521 27 -625 19z m3023 -1985 c3 -29 -13 -54 -214 -327 -362 -489 -766
-1100 -1151 -1736 -89 -148 -161 -272 -158 -274 2 -2 62 -13 132 -23 159 -23
350 -70 466 -115 134 -51 222 -108 317 -203 125 -126 170 -228 170 -387 0 -65
-4 -87 -18 -104 -28 -35 -41 -18 -35 43 9 85 -33 148 -137 212 -120 73 -312
131 -527 161 -122 16 -520 31 -573 20 -33 -6 -39 -14 -122 -169 -103 -193
-194 -377 -233 -469 -49 -118 -91 -130 -83 -24 7 76 63 216 188 466 50 100 90
184 88 186 -7 7 -215 -27 -313 -50 -135 -33 -247 -71 -465 -157 -211 -83 -302
-109 -381 -109 -53 0 -59 3 -89 37 -31 35 -32 39 -28 103 13 178 155 332 402
436 286 121 582 172 927 159 l186 -6 103 173 c432 723 1152 1819 1382 2104 56
70 78 84 128 81 30 -2 35 -6 38 -28z"/>
</g>
</svg>
