<?xml version="1.0" standalone="no"?>
<!DOCTYPE svg PUBLIC "-//W3C//DTD SVG 20010904//EN"
 "http://www.w3.org/TR/2001/REC-SVG-20010904/DTD/svg10.dtd">
<svg version="1.0" xmlns="http://www.w3.org/2000/svg"
 width="700.000000pt" height="700.000000pt" viewBox="0 0 700.000000 700.000000"
 preserveAspectRatio="xMidYMid meet">
<metadata>
Created by potrace 1.11, written by Peter Selinger 2001-2013
</metadata>
<g transform="translate(0.000000,700.000000) scale(0.100000,-0.100000)"
fill="#000000" stroke="none">
<path d="M4692 6464 c-29 -14 -61 -38 -72 -54 -17 -24 -130 -254 -130 -265 0
-1 -21 -47 -47 -101 -26 -55 -48 -101 -49 -104 0 -3 -18 -41 -38 -85 -21 -44
-51 -107 -66 -140 -50 -109 -152 -329 -185 -400 -18 -38 -43 -92 -55 -120 -13
-27 -43 -93 -67 -145 -25 -52 -69 -147 -98 -210 -29 -63 -70 -151 -91 -195
-21 -44 -38 -82 -39 -85 -2 -8 -38 -84 -94 -203 -28 -60 -51 -110 -51 -112 0
-1 -24 -54 -54 -116 -30 -63 -65 -139 -79 -169 -21 -48 -60 -131 -189 -410
-17 -36 -49 -105 -73 -155 -23 -49 -76 -164 -118 -255 -41 -91 -100 -218 -131
-284 -31 -65 -56 -120 -56 -121 0 -2 -29 -65 -65 -140 -36 -75 -65 -138 -65
-140 0 -1 -20 -45 -44 -96 -24 -52 -55 -119 -69 -149 -14 -30 -46 -100 -72
-155 -26 -55 -71 -151 -100 -215 -29 -63 -69 -149 -88 -190 -44 -96 -215 -463
-257 -555 -18 -38 -53 -113 -77 -165 -80 -170 -89 -218 -54 -296 62 -136 241
-166 343 -58 26 28 77 131 218 439 15 33 45 98 68 145 22 47 152 328 290 625
264 572 295 637 362 780 23 50 64 137 90 195 26 58 73 158 104 224 31 65 56
119 56 121 0 1 22 49 49 106 26 57 59 127 71 154 13 28 49 106 81 174 33 68
59 125 59 127 0 2 24 54 54 116 45 96 146 313 267 576 73 158 89 193 129 277
23 50 85 182 137 295 52 113 111 239 130 280 19 41 75 161 124 267 48 105 113
244 144 308 30 65 55 118 55 120 0 1 22 49 49 106 26 57 59 127 72 154 24 52
31 135 16 188 -10 38 -73 105 -115 123 -54 22 -121 18 -180 -12z"/>
<path d="M1986 5542 c-10 -2 -73 -37 -140 -76 -155 -93 -651 -388 -693 -412
-17 -11 -80 -48 -140 -84 -59 -36 -112 -67 -118 -70 -5 -3 -134 -79 -285 -169
-151 -90 -334 -200 -407 -243 -135 -80 -163 -107 -187 -175 -21 -61 -6 -145
35 -197 16 -21 127 -93 234 -152 11 -6 85 -48 165 -94 80 -45 163 -93 185
-105 22 -13 86 -50 143 -84 57 -34 105 -61 107 -61 3 0 249 -141 435 -250 448
-261 646 -370 688 -378 138 -25 254 78 247 218 -6 102 -49 144 -282 272 -76
42 -701 402 -735 424 -21 13 -40 24 -42 24 -2 0 -80 44 -173 98 -93 53 -180
103 -193 110 -87 46 -113 133 -57 189 17 16 847 517 1052 633 160 91 355 214
377 237 62 64 71 171 22 251 -48 78 -141 114 -238 94z"/>
<path d="M4887 4005 c-55 -19 -91 -50 -119 -102 -49 -90 -21 -211 61 -267 64
-44 272 -166 281 -166 6 0 10 -3 10 -7 0 -5 10 -13 23 -19 18 -9 120 -69 265
-155 108 -65 413 -245 437 -259 17 -9 66 -39 110 -65 44 -26 89 -53 100 -59
79 -44 165 -100 180 -116 25 -28 30 -90 8 -123 -16 -25 -177 -122 -668 -402
-22 -12 -96 -55 -165 -95 -69 -40 -141 -82 -160 -92 -19 -11 -53 -30 -75 -43
-22 -14 -46 -28 -54 -31 -8 -4 -63 -36 -123 -71 -60 -35 -113 -63 -119 -63 -5
0 -9 -4 -9 -9 0 -5 -9 -12 -19 -16 -61 -19 -120 -138 -106 -213 20 -108 101
-175 211 -176 61 0 64 2 304 140 134 76 263 151 289 165 25 14 278 160 561
324 283 163 530 306 548 316 232 133 245 141 270 163 91 80 84 242 -13 319
-19 15 -117 77 -218 136 -100 59 -317 188 -482 286 -165 98 -309 183 -320 189
-11 6 -110 65 -220 130 -521 310 -612 363 -644 376 -44 18 -102 20 -144 5z"/>
</g>
</svg>
