<svg xmlns="http://www.w3.org/2000/svg" width="256" height="256" viewBox="0 0 100 100"><rect width="100" height="100" rx="50" fill="#000000"></rect><path fill="#ffffff" d="M56.65 27.11L56.65 27.11Q56.09 26.20 54.69 26.20Q53.29 26.20 52.07 26.55Q50.84 26.90 49.16 27.53L49.16 27.53Q46.43 28.65 44.75 29.63L44.75 29.63Q38.45 32.99 32.99 37.51Q27.53 42.02 27.25 44.26L27.25 44.26Q27.11 46.01 29.14 47.13L29.14 47.13Q30.89 48.18 33.20 49.13Q35.51 50.07 36.56 50.56L36.56 50.56Q42.16 53.36 42.16 57.98L42.16 57.98Q42.16 60.01 40.97 61.90L40.97 61.90Q39.08 64.84 35.27 66.77Q31.45 68.69 27.11 69.46L27.11 69.46Q22.63 70.23 19.69 70.23L19.69 70.23Q14.37 70.23 9.05 67.96Q3.73 65.68 2.47 60.85L2.47 60.85Q5.06 63.16 9.61 64.14Q14.16 65.12 18.29 65.12L18.29 65.12Q24.45 65.05 27.43 64.14Q30.40 63.23 32.61 62.01Q34.81 60.78 36.67 59.14Q38.52 57.49 38.52 55.50Q38.52 53.50 35.86 51.89L35.86 51.89Q35.65 51.75 31.63 50.14Q27.60 48.53 25.46 46.57Q23.33 44.61 23.33 42.09L23.33 42.09Q23.33 37.33 29.21 32.40Q35.09 27.46 42.06 24.73Q49.02 22 53.92 22L53.92 22Q57.35 22 59.24 23.23Q61.13 24.45 61.13 26.62L61.13 26.62Q61.13 26.90 61.13 27.25L61.13 27.25Q60.92 29.42 53.50 36.28L53.50 36.28Q50.77 38.80 48.71 41.92Q46.64 45.03 46.64 47.41L46.64 47.41Q46.64 47.62 46.64 47.83L46.64 47.83Q44.47 46.15 44.47 43.35L44.47 43.35Q44.47 40.83 46.64 37.19L46.64 37.19Q49.79 31.87 56.65 27.11ZM96.97 30.96L96.97 30.96Q96.97 28.79 93.61 27.95Q90.25 27.11 85.39 27.11Q80.52 27.11 72.68 28.51L72.68 28.51Q59.31 30.96 53.92 34.95L53.92 34.95Q51.61 36.63 51.61 38.24Q51.61 39.85 53.85 41.39L53.85 41.39Q54.34 41.67 53.82 41.71Q53.29 41.74 52.94 41.46L52.94 41.46Q51.19 40.27 50.42 38.10L50.42 38.10Q50.07 37.12 50.07 35.93L50.07 35.93Q50.07 31.66 54.34 29.28L54.34 29.28Q59.73 26.13 67.78 24.28Q75.83 22.42 82.97 22.42L82.97 22.42Q87.73 22.42 92.49 24.17L92.49 24.17Q95.01 25.15 96.27 26.90Q97.53 28.65 97.53 30.61L97.53 30.61Q97.53 32.22 97.15 32.19Q96.76 32.15 96.87 31.73Q96.97 31.31 96.97 30.96ZM88.92 28.09L89.55 28.02Q90.18 28.02 90.18 28.37L90.18 28.37Q90.18 28.86 89.41 29.91L89.41 29.91Q79.05 43.56 68.20 61.90L68.20 61.90Q72.75 62.39 76.22 63.55Q79.68 64.70 81.78 66.98Q83.88 69.25 83.88 72.12L83.88 72.12Q83.88 74.01 83.32 73.94L83.32 73.94Q82.97 73.94 83.08 73.45Q83.18 72.96 83.18 72.75L83.18 72.75Q83.18 71.14 80.73 69.81L80.73 69.81Q76.32 67.43 67.85 67.43L67.85 67.43Q66.45 67.43 64.98 67.50L64.98 67.50Q61.41 73.87 60.08 77.23L60.08 77.23Q59.73 78 59.42 78Q59.10 78 59.10 77.23L59.10 77.23Q59.10 75.41 63.23 67.57L63.23 67.57Q58.47 67.99 53.57 69.95L53.57 69.95Q51.54 70.72 50.28 71.25Q49.02 71.77 47.41 72.09Q45.80 72.40 45.38 71.77L45.38 71.77Q44.82 71.35 44.82 70.55Q44.82 69.74 45.14 68.80Q45.45 67.85 46.43 66.73L46.43 66.73Q48.53 64.14 54.83 62.53L54.83 62.53Q58.26 61.62 61.48 61.62Q64.70 61.62 66.52 61.76L66.52 61.76Q72.89 50.98 80.49 39.54Q88.08 28.09 88.92 28.09L88.92 28.09Z"></path></svg>